<?xml version="1.0" encoding="utf-8"?>
<!-- Generator: Adobe Illustrator 16.0.0, SVG Export Plug-In . SVG Version: 6.00 Build 0)  -->
<!DOCTYPE svg PUBLIC "-//W3C//DTD SVG 1.1//EN" "http://www.w3.org/Graphics/SVG/1.1/DTD/svg11.dtd">
<svg version="1.1" id="Layer_1" xmlns="http://www.w3.org/2000/svg" xmlns:xlink="http://www.w3.org/1999/xlink" x="0px" y="0px"
	 width="43.223px" height="33.758px" viewBox="0 0 43.223 33.758" enable-background="new 0 0 43.223 33.758" xml:space="preserve">
<g id="_x32_6">
	<g>
		<path fill="#333333" d="M16.674,23.393c0.412-0.717,0.168-1.629-0.545-2.041c-0.715-0.412-1.629-0.166-2.039,0.547l-1.66,2.873
			c-0.412,0.713-0.168,1.627,0.547,2.039c0.715,0.414,1.627,0.168,2.041-0.547L16.674,23.393z"/>
		<path fill="#333333" d="M31.545,23.393c0.412-0.717,0.168-1.629-0.547-2.041s-1.627-0.166-2.039,0.547l-1.656,2.873
			c-0.416,0.713-0.17,1.627,0.543,2.039c0.715,0.414,1.629,0.168,2.041-0.547L31.545,23.393z"/>
		<path fill="#333333" d="M25.424,30.109c0.414-0.713,0.17-1.627-0.545-2.039c-0.715-0.411-1.629-0.168-2.041,0.548l-1.656,2.871
			c-0.414,0.715-0.168,1.629,0.545,2.04c0.715,0.412,1.629,0.166,2.039-0.547L25.424,30.109z"/>
		<path fill="#333333" d="M18.709,31.348l-0.945-0.549l0.945-0.545c0.326-0.188,0.438-0.605,0.252-0.934
			c-0.189-0.326-0.607-0.438-0.936-0.25l-0.945,0.547v-1.094c0-0.377-0.307-0.683-0.684-0.683s-0.684,0.306-0.684,0.683v1.094
			l-0.947-0.547c-0.322-0.189-0.742-0.076-0.93,0.25c-0.188,0.326-0.078,0.744,0.25,0.934l0.945,0.545l-0.945,0.549
			c-0.328,0.188-0.438,0.604-0.25,0.932c0.188,0.328,0.605,0.438,0.93,0.25l0.947-0.547v1.095c0,0.377,0.307,0.684,0.684,0.684
			s0.684-0.307,0.684-0.684v-1.095l0.945,0.547c0.326,0.188,0.744,0.078,0.936-0.25C19.148,31.952,19.035,31.536,18.709,31.348z"/>
		<path fill="#333333" d="M24.615,24.627l-0.947-0.547l0.947-0.547c0.322-0.188,0.438-0.604,0.25-0.934
			c-0.189-0.326-0.605-0.437-0.936-0.25l-0.947,0.547v-1.092c0-0.38-0.305-0.683-0.682-0.683s-0.682,0.303-0.682,0.683v1.092
			l-0.947-0.547c-0.326-0.188-0.742-0.076-0.93,0.25c-0.191,0.327-0.08,0.743,0.248,0.934l0.943,0.547l-0.943,0.547
			c-0.328,0.188-0.439,0.604-0.248,0.934c0.186,0.324,0.604,0.438,0.93,0.25l0.947-0.547v1.094c0,0.377,0.305,0.683,0.682,0.683
			s0.682-0.306,0.682-0.683v-1.094l0.947,0.547c0.328,0.188,0.744,0.074,0.936-0.25C25.053,25.232,24.939,24.816,24.615,24.627z"/>
	</g>
	<path fill="#333333" d="M32.377,13.823c1.451-0.588,2.9-0.541,3.316-0.541c2.08,0,4.598,1.82,4.598,4.808
		c0,2.541-2.062,4.6-4.598,4.6h-0.213c-0.775,0-1.406,0.631-1.406,1.408c0,0.775,0.631,1.404,1.406,1.404h0.207
		c4.172,0,7.555-3.381,7.555-7.555c0,0,0.039-7.546-7.9-7.546c-1.719-7.069-8.334-7.428-10.189-6.929C23.141,1.47,19.791,0,16.404,0
		C9.688,0,4.184,5.192,3.689,11.783C1.484,13.052,0,15.429,0,18.152c0,4.062,3.291,7.351,7.348,7.351h1.025
		c0.639,0,1.232-0.688,1.232-1.405c0-0.777-0.629-1.406-1.402-1.406H7.983c-2.742,0-4.77-1.986-4.77-4.56
		c0-2.097,1.334-3.938,3.416-4.567c0.248-9.921,8.965-10.428,9.932-10.428c2.881,0,5.736,1.413,7.572,3.502
		C27.852,5.418,32.945,8.283,32.377,13.823z"/>
</g>
</svg>
