<?xml version="1.0" encoding="utf-8"?>
<!-- Generator: Adobe Illustrator 16.0.0, SVG Export Plug-In . SVG Version: 6.00 Build 0)  -->
<!DOCTYPE svg PUBLIC "-//W3C//DTD SVG 1.1//EN" "http://www.w3.org/Graphics/SVG/1.1/DTD/svg11.dtd">
<svg version="1.1" id="Layer_1" xmlns="http://www.w3.org/2000/svg" xmlns:xlink="http://www.w3.org/1999/xlink" x="0px" y="0px"
	 width="43.243px" height="42.547px" viewBox="0 0 43.243 42.547" enable-background="new 0 0 43.243 42.547" xml:space="preserve">
<g id="_x32_2">
	<path fill="#333333" d="M32.375,13.823c1.453-0.588,2.903-0.541,3.317-0.541c2.084,0,4.599,1.821,4.599,4.81
		c0,2.54-2.062,4.598-4.599,4.598h-0.202c-0.777,0-1.408,0.631-1.408,1.41c0,0.774,0.631,1.403,1.408,1.403h0.198
		c4.172,0,7.554-3.381,7.554-7.554c0,0,0.039-7.547-7.902-7.547c-1.717-7.069-8.33-7.428-10.188-6.929
		C23.143,1.472,19.793,0,16.404,0C9.689,0,4.186,5.193,3.689,11.783C1.486,13.052,0,15.429,0,18.153c0,4.061,3.291,7.35,7.352,7.35
		h0.99c0.635,0,1.234-0.688,1.234-1.407c0-0.775-0.633-1.406-1.408-1.406H7.986c-2.746,0-4.771-1.984-4.771-4.557
		c0-2.099,1.334-3.94,3.418-4.568c0.248-9.921,8.963-10.428,9.93-10.428c2.879,0,5.736,1.412,7.574,3.502
		C27.852,5.419,32.948,8.283,32.375,13.823z"/>
	<g>
		<path fill="#333333" d="M16.789,23.374c0.414-0.713,0.168-1.627-0.545-2.039c-0.715-0.412-1.629-0.168-2.041,0.546l-1.656,2.872
			c-0.416,0.715-0.17,1.628,0.545,2.039c0.715,0.413,1.627,0.168,2.039-0.545L16.789,23.374z"/>
		<path fill="#333333" d="M12.26,30.791c0.412-0.714,0.17-1.628-0.547-2.04c-0.713-0.412-1.625-0.168-2.039,0.547L8.016,32.17
			c-0.412,0.714-0.166,1.628,0.549,2.04c0.713,0.412,1.625,0.167,2.037-0.548L12.26,30.791z"/>
		<path fill="#333333" d="M23.825,23.374c0.409-0.713,0.166-1.627-0.55-2.039c-0.713-0.412-1.627-0.168-2.037,0.546l-1.66,2.872
			c-0.412,0.715-0.168,1.628,0.547,2.039c0.715,0.413,1.627,0.168,2.042-0.545L23.825,23.374z"/>
		<path fill="#333333" d="M19.293,31.15c0.412-0.715,0.168-1.629-0.547-2.041c-0.713-0.411-1.627-0.166-2.039,0.548l-1.658,2.872
			c-0.41,0.714-0.168,1.628,0.549,2.039c0.711,0.412,1.627,0.166,2.039-0.547L19.293,31.15z"/>
		<path fill="#333333" d="M14.803,38.928c0.41-0.715,0.166-1.628-0.549-2.041c-0.715-0.41-1.627-0.166-2.039,0.549l-1.658,2.871
			c-0.412,0.715-0.168,1.627,0.545,2.039c0.715,0.413,1.629,0.168,2.041-0.546L14.803,38.928z"/>
		<path fill="#333333" d="M30.856,23.374c0.412-0.713,0.168-1.627-0.545-2.039c-0.716-0.412-1.63-0.168-2.042,0.546l-1.658,2.872
			c-0.409,0.715-0.168,1.628,0.548,2.039c0.715,0.413,1.627,0.168,2.041-0.545L30.856,23.374z"/>
		<path fill="#333333" d="M26.329,31.15c0.412-0.715,0.166-1.629-0.547-2.041c-0.714-0.411-1.63-0.166-2.041,0.548l-1.659,2.872
			c-0.412,0.714-0.168,1.628,0.547,2.039c0.715,0.412,1.629,0.166,2.041-0.547L26.329,31.15z"/>
	</g>
</g>
</svg>
